<svg xmlns="http://www.w3.org/2000/svg" xmlns:xlink="http://www.w3.org/1999/xlink" x="0px" y="0px" width="64px" height="64px" viewBox="0 0 64 64"><g  transform="translate(0, 0)">
<circle data-color="color-2" fill="none" stroke="#0066cc" stroke-width="2" stroke-linecap="square" stroke-miterlimit="10" cx="36" cy="10" r="6" stroke-linejoin="miter"/>
<line data-color="color-2" fill="none" stroke="#0066cc" stroke-width="2" stroke-linecap="square" stroke-miterlimit="10" x1="30" y1="28" x2="42" y2="28" stroke-linejoin="miter"/>
<path data-cap="butt" fill="none" stroke="#343434" stroke-width="2" stroke-miterlimit="10" d="M57.7,39.6c2.6-0.4,4.3-2.3,4.3-5.4&#10;&#9;c0-3.5-2.7-4.1-2.7-4.1" stroke-linejoin="miter" stroke-linecap="butt"/>
<circle fill="none" stroke="#343434" stroke-width="2" stroke-linecap="square" stroke-miterlimit="10" cx="19" cy="35" r="3" stroke-linejoin="miter"/>
<path fill="none" stroke="#343434" stroke-width="2" stroke-linecap="square" stroke-miterlimit="10" d="M38,56v6h10v-7.5&#10;&#9;c5.9-2.7,10-8.6,10-15.5c0-9.4-7.6-17-17-17H25c-4.8-8.5-13-6-13-6l3.1,9.2c-3,2.1-5.2,5.2-6.3,8.8H2v14h8.6&#10;&#9;c1.8,2.8,4.3,5.1,7.4,6.5V62h10v-6" stroke-linejoin="miter"/>
<line fill="none" stroke="#343434" stroke-width="2" stroke-linecap="square" stroke-miterlimit="10" x1="26" y1="56" x2="40" y2="56" stroke-linejoin="miter"/>
</g></svg>